<?xml version="1.0" encoding="utf-8"?><svg xmlns="http://www.w3.org/2000/svg" xmlns:xlink="http://www.w3.org/1999/xlink"><symbol fill="none" viewBox="0 0 36 36" id="arrow-down" xmlns="http://www.w3.org/2000/svg"><path d="m9 13.5 9 9 9-9" stroke="#1D263A" stroke-width="3.083" stroke-linecap="round" stroke-linejoin="round"/></symbol><symbol fill="none" viewBox="0 0 24 24" id="arrow-left" xmlns="http://www.w3.org/2000/svg"><path d="M13.83 19a1 1 0 0 1-.78-.37l-4.83-6a1 1 0 0 1 0-1.27l5-6a1.001 1.001 0 1 1 1.54 1.28L10.29 12l4.32 5.36a1.001 1.001 0 0 1-.78 1.64Z" fill="#24AB70" fill-opacity=".2"/></symbol><symbol fill="none" viewBox="0 0 24 24" id="arrow-right" xmlns="http://www.w3.org/2000/svg"><path d="M10.17 5a1 1 0 0 1 .78.37l4.83 6a1 1 0 0 1 0 1.27l-5 6a1.001 1.001 0 1 1-1.54-1.28L13.71 12 9.39 6.64A1 1 0 0 1 10.17 5Z" fill="#24AB70"/></symbol><symbol fill="none" viewBox="0 0 36 36" id="arrow-up" xmlns="http://www.w3.org/2000/svg"><path d="m27 22.5-9-9-9 9" stroke="#1D263A" stroke-width="3.083" stroke-linecap="round" stroke-linejoin="round"/></symbol><symbol fill="none" viewBox="0 0 24 24" id="button-search" xmlns="http://www.w3.org/2000/svg"><g clip-path="url(#ea)"><path d="m20.71 19.29-3.4-3.39A7.92 7.92 0 0 0 19 11a8 8 0 1 0-8 8 7.92 7.92 0 0 0 4.9-1.69l3.39 3.4a1.002 1.002 0 0 0 1.639-.325 1 1 0 0 0-.219-1.095ZM5 11a6 6 0 1 1 12 0 6 6 0 0 1-12 0Z" fill="#fff"/></g><defs><clipPath id="ea"><path fill="#fff" d="M0 0h24v24H0z"/></clipPath></defs></symbol><symbol fill="none" viewBox="0 0 56 56" id="button-watchVideo" xmlns="http://www.w3.org/2000/svg"><circle cx="28" cy="28" r="28" fill="#fff"/><circle cx="28" cy="28" r="27.5" stroke="#E8E8E8" stroke-opacity=".31"/><g clip-path="url(#fa)"><path d="M25.433 38a3.718 3.718 0 0 1-1.517-.333 2.934 2.934 0 0 1-1.75-2.65V20.983a2.934 2.934 0 0 1 1.75-2.65 3.5 3.5 0 0 1 3.684.434l8.5 7.016a2.834 2.834 0 0 1 0 4.434l-8.5 7.016a3.433 3.433 0 0 1-2.167.767Z" fill="#24AB70"/></g><defs><clipPath id="fa"><path fill="#fff" transform="translate(8 8)" d="M0 0h40v40H0z"/></clipPath></defs></symbol><symbol fill="none" viewBox="0 0 40 40" id="facilities-breakfast" xmlns="http://www.w3.org/2000/svg"><path d="M10.547 7.11h18.906c.646 0 1.172.525 1.172 1.171s-.526 1.172-1.172 1.172h-7.11a3.52 3.52 0 0 0-3.515 3.516v1.172h2.344v-1.172c0-.646.526-1.172 1.172-1.172h7.11a3.52 3.52 0 0 0 3.515-3.516 3.52 3.52 0 0 0-3.516-3.515H10.547a1.173 1.173 0 0 1-1.172-1.172V2.422H7.031v1.172a3.52 3.52 0 0 0 3.516 3.515ZM31.617 28.203h3.695A4.693 4.693 0 0 0 40 23.516a4.693 4.693 0 0 0-4.688-4.688H32.97v-2.344H7.03v5.938c0 3.005 1.017 5.846 2.856 8.125H0v2.344h5.135l2.344 4.687H32.52l2.344-4.687H40v-2.344h-9.887a12.86 12.86 0 0 0 1.504-2.344Zm3.695-7.031a2.346 2.346 0 0 1 2.344 2.344 2.346 2.346 0 0 1-2.343 2.343H32.51c.301-1.104.459-2.258.459-3.437v-1.25h2.343Zm-25.937 1.25v-3.594h21.25v3.594c0 3.16-1.373 6.098-3.78 8.125h-13.69a10.562 10.562 0 0 1-3.78-8.125Zm21.698 12.812H8.927l-1.171-2.343h24.489l-1.172 2.343Z" fill="#24AB70"/></symbol><symbol fill="none" viewBox="0 0 40 40" id="facilities-electricity" xmlns="http://www.w3.org/2000/svg"><g clip-path="url(#ha)"><path d="M11.278 39.879c.492.243 1.09.112 1.435-.32l18.75-23.516a1.172 1.172 0 0 0-.916-1.902h-7.484l6.19-12.447A1.172 1.172 0 0 0 28.203 0H14.141c-.539 0-1.008.367-1.137.889L8.316 19.717a1.172 1.172 0 0 0 1.137 1.455h5.532L10.66 38.545c-.133.535.124 1.09.618 1.334Zm6.344-19.596a1.172 1.172 0 0 0-1.138-1.455h-5.532l4.104-16.484h11.256l-6.19 12.447a1.172 1.172 0 0 0 1.05 1.693h6.942l-13.88 17.409 3.388-13.61Z" fill="#24AB70"/></g><defs><clipPath id="ha"><path fill="#fff" d="M0 0h40v40H0z"/></clipPath></defs></symbol><symbol fill="none" viewBox="0 0 40 40" id="facilities-exercise" xmlns="http://www.w3.org/2000/svg"><path d="M37.391 12.174h-1.739a2.58 2.58 0 0 0-.87.16V9.565a2.612 2.612 0 0 0-2.608-2.608h-1.74a2.612 2.612 0 0 0-2.608 2.608v6.087H12.174V9.565a2.612 2.612 0 0 0-2.609-2.608H7.826a2.612 2.612 0 0 0-2.609 2.608v2.769a2.58 2.58 0 0 0-.87-.16H2.61A2.612 2.612 0 0 0 0 14.783v10.434a2.612 2.612 0 0 0 2.609 2.61h1.739c.306 0 .596-.064.87-.16v2.768a2.612 2.612 0 0 0 2.608 2.609h1.74a2.612 2.612 0 0 0 2.608-2.61v-6.086h15.652v6.087a2.612 2.612 0 0 0 2.609 2.609h1.739a2.612 2.612 0 0 0 2.609-2.61v-2.768c.273.098.563.16.87.16h1.738A2.612 2.612 0 0 0 40 25.217V14.783a2.612 2.612 0 0 0-2.609-2.61ZM5.217 25.217c0 .48-.39.87-.87.87H2.61c-.48 0-.87-.39-.87-.87V14.783c0-.48.39-.87.87-.87h1.739c.479 0 .87.39.87.87v10.434Zm5.218 5.218c0 .479-.39.87-.87.87H7.826c-.479 0-.87-.391-.87-.87V9.565c0-.479.391-.87.87-.87h1.74c.478 0 .869.391.869.87v20.87Zm17.391-7.826H12.174V17.39h15.652v5.218Zm5.218-7.826v15.652c0 .479-.391.87-.87.87h-1.74c-.478 0-.869-.391-.869-.87V9.565c0-.479.39-.87.87-.87h1.739c.479 0 .87.391.87.87v5.218Zm5.217 10.434c0 .48-.39.87-.87.87h-1.739c-.479 0-.87-.39-.87-.87V14.783c0-.48.391-.87.87-.87h1.74c.478 0 .869.39.869.87v10.434Z" fill="#24AB70"/></symbol><symbol fill="none" viewBox="0 0 40 40" id="facilities-other" xmlns="http://www.w3.org/2000/svg"><g clip-path="url(#ja)" fill="#24AB70"><path d="M5 25c-2.757 0-5-2.243-5-5s2.243-5 5-5 5 2.243 5 5-2.243 5-5 5Zm0-8.333A3.337 3.337 0 0 0 1.667 20 3.337 3.337 0 0 0 5 23.333 3.337 3.337 0 0 0 8.333 20 3.337 3.337 0 0 0 5 16.667ZM20 25c-2.757 0-5-2.243-5-5s2.243-5 5-5 5 2.243 5 5-2.243 5-5 5Zm0-8.333A3.337 3.337 0 0 0 16.667 20 3.337 3.337 0 0 0 20 23.333 3.337 3.337 0 0 0 23.333 20 3.337 3.337 0 0 0 20 16.667ZM35 25c-2.757 0-5-2.243-5-5s2.243-5 5-5 5 2.243 5 5-2.243 5-5 5Zm0-8.333A3.337 3.337 0 0 0 31.667 20 3.337 3.337 0 0 0 35 23.333 3.337 3.337 0 0 0 38.333 20 3.337 3.337 0 0 0 35 16.667Z"/></g><defs><clipPath id="ja"><path fill="#fff" d="M0 0h40v40H0z"/></clipPath></defs></symbol><symbol fill="none" viewBox="0 0 40 40" id="facilities-parking" xmlns="http://www.w3.org/2000/svg"><path d="M21.127 7.672h-4.646c-.657 0-1.172.537-1.172 1.171v16.689a1.172 1.172 0 0 0 2.343 0v-6.084c1.088-.006 2.68-.014 3.475-.014 1.571 0 3.06-.608 4.194-1.712 1.148-1.117 1.78-2.598 1.78-4.17 0-1.57-.632-3.051-1.78-4.169a5.984 5.984 0 0 0-4.194-1.711Zm0 9.418c-.791 0-2.36.008-3.449.014-.02-3.65-.009-2.422-.022-7.089h3.471c1.968 0 3.63 1.62 3.63 3.538 0 1.917-1.662 3.537-3.63 3.537Z" fill="#24AB70"/><path d="M32.153 5.034A17.075 17.075 0 0 0 20 0 17.075 17.075 0 0 0 7.846 5.034c-9.437 9.437-4.955 25.705 8.091 28.857v4.156c0 1.077.876 1.953 1.953 1.953h4.22a1.955 1.955 0 0 0 1.952-1.953V33.89c13.059-3.155 17.522-19.426 8.091-28.857ZM21.72 37.656H18.28V34.29c1.14.113 2.298.113 3.438 0v3.366Zm.961-5.866C13.645 33.44 5.156 26.548 5.156 17.188 5.156 9.002 11.815 2.344 20 2.344c8.185 0 14.843 6.659 14.843 14.844 0 7.165-5.102 13.314-12.163 14.602Z" fill="#24AB70"/></symbol><symbol fill="none" viewBox="0 0 40 40" id="facilities-pool" xmlns="http://www.w3.org/2000/svg"><g clip-path="url(#la)" fill="#24AB70"><path d="M1.493 28.58c15.202-4.32 20.758 4.412 37.632.007a1.172 1.172 0 0 0-.592-2.267c-3.313.864-6.184 1.184-8.785 1.188l-3.397-5.476c2.008 2.496 5.74 2.64 7.928.314a5.22 5.22 0 0 0 1.424-3.76c-.144-4.703-5.906-6.814-9.08-3.44a5.253 5.253 0 0 0-.945 5.802l-4.648-7.492 6.898-1.991a3.467 3.467 0 0 0 2.067-5.021 3.452 3.452 0 0 0-3.99-1.642L15.563 7.816c-2.708.781-3.92 3.93-2.434 6.326l3.157 5.087c-2.276 1.413-9.493 5.889-9.57 5.942a34.687 34.687 0 0 0-5.862 1.155 1.172 1.172 0 0 0 .64 2.255Zm26.838-11.828a2.91 2.91 0 1 1 4.24 3.988 2.91 2.91 0 0 1-4.114.127 2.909 2.909 0 0 1-.126-4.115Zm-9.437 2.238-3.775-6.084a1.907 1.907 0 0 1 1.092-2.838l10.444-3.014a1.124 1.124 0 1 1 .623 2.159l-8.385 2.42a1.172 1.172 0 0 0-.67 1.744l8.694 14.012c-5.468-.459-9.911-2.108-15.537-2.358l7.136-4.428c.55-.341.72-1.063.378-1.613ZM38.532 31.788c-16.144 4.215-21.809-4.505-37.68.007a1.172 1.172 0 0 0 .64 2.255c15.202-4.322 20.758 4.41 37.632.006a1.172 1.172 0 1 0-.592-2.267Z"/></g><defs><clipPath id="la"><path fill="#fff" d="M0 0h40v40H0z"/></clipPath></defs></symbol><symbol fill="none" viewBox="0 0 40 40" id="facilities-wifi" xmlns="http://www.w3.org/2000/svg"><g clip-path="url(#ma)" fill="#24AB70"><path d="M19.922 36.445a2.578 2.578 0 1 0 0-5.156 2.578 2.578 0 0 0 0 5.156ZM39.58 12.099C34.446 6.589 27.492 3.555 20 3.555c-7.492 0-14.445 3.034-19.58 8.544a1.563 1.563 0 0 0 2.286 2.13C7.243 9.361 13.385 6.68 20 6.68s12.757 2.682 17.294 7.55a1.559 1.559 0 0 0 2.209.078 1.563 1.563 0 0 0 .078-2.208Z"/><path d="M33.843 18.551c-3.796-3.824-8.712-5.93-13.843-5.93-5.132 0-10.049 2.106-13.844 5.93a1.562 1.562 0 1 0 2.219 2.202c3.203-3.229 7.332-5.007 11.625-5.007 4.292 0 8.42 1.778 11.625 5.007.306.308.708.462 1.11.462a1.563 1.563 0 0 0 1.11-2.663ZM27.59 25.023c-2.033-2.014-4.947-3.265-7.605-3.265h-.115c-2.658 0-5.572 1.25-7.605 3.265a1.562 1.562 0 0 0 2.2 2.22c1.447-1.434 3.569-2.36 5.405-2.36h.115c1.837 0 3.958.926 5.405 2.36a1.562 1.562 0 1 0 2.2-2.22Z"/></g><defs><clipPath id="ma"><path fill="#fff" d="M0 0h40v40H0z"/></clipPath></defs></symbol><symbol fill="none" viewBox="0 0 40 40" id="facilities-workspace" xmlns="http://www.w3.org/2000/svg"><path d="M37.522 4.885h-25.29a2.481 2.481 0 0 0-2.478 2.478V9.57L7.357 7.172l-4.06 4.06 1.843 1.844L0 21.149l5.22 8.158H3.247A2.777 2.777 0 0 0 .474 32.08v3.034h13.829v-3.034a2.777 2.777 0 0 0-2.774-2.774h-3.49l-5.221-8.161 3.443-5.41a6.023 6.023 0 0 0 1.75 4.688l.985.985.758-.758v5.282a2.481 2.481 0 0 0 2.478 2.479h7.089l-.419 4.328h-1.96v2.375H32.812V32.74h-1.96l-.42-4.328h7.09A2.481 2.481 0 0 0 40 25.933V7.363a2.481 2.481 0 0 0-2.478-2.478ZM11.529 31.682a.4.4 0 0 1 .399.399v.659H2.85v-.66a.4.4 0 0 1 .398-.398h8.28ZM8.28 11.633c-.021.02-.043.038-.065.057a6.045 6.045 0 0 0-.202.193l-.004.003c0 .002-.002.003-.003.004-.066.066-.13.133-.192.202-.02.022-.04.044-.058.066l-.083.093-1.018-1.018.701-.702 1.018 1.019-.094.083Zm.81 6.323a3.676 3.676 0 0 1-.111-3.39l.01-.022c.019-.037.037-.074.057-.11l.016-.03.057-.102.02-.034.06-.096.026-.038.06-.089.032-.044.06-.08.042-.053.055-.069.062-.07.042-.048a3.663 3.663 0 0 1 .24-.238l.038-.034a3.43 3.43 0 0 1 .097-.083l.042-.034.1-.076.04-.03.108-.075.035-.024a3.764 3.764 0 0 1 .146-.09c.306-.18.633-.311.97-.394l.015-.005c.053-.012.106-.024.16-.034l.013-.003c.054-.01.109-.02.163-.028l.01-.001a3.741 3.741 0 0 1 .341-.033h.01c.054-.003.109-.004.163-.004h.015c.153 0 .306.01.458.029l.01.001a3.765 3.765 0 0 1 .406.077c.022.006.045.01.067.017.06.016.119.033.178.052l.092.032a3.741 3.741 0 0 1 .307.123l.102.048.095.05c.027.014.054.027.08.042l-2.494 2.495-2.495 2.495ZM21.288 32.74l.42-4.328h6.339l.419 4.328h-7.178Zm16.337-6.807a.103.103 0 0 1-.103.104h-25.29a.103.103 0 0 1-.103-.104v-2.211h25.496v2.211Zm0-4.587H12.129v-3.07l5.404-5.404-.985-.986a6.003 6.003 0 0 0-2.039-1.34l-.02-.007a6.022 6.022 0 0 0-.254-.094l-.075-.024a5.852 5.852 0 0 0-.2-.062c-.043-.013-.086-.024-.13-.035l-.147-.038-.176-.039-.102-.02a6.207 6.207 0 0 0-.216-.037l-.063-.01a5.85 5.85 0 0 0-.247-.03l-.033-.002a5.838 5.838 0 0 0-.271-.02h-.01a6.078 6.078 0 0 0-.436-.007V7.363c0-.057.046-.103.103-.103h25.29c.056 0 .103.047.103.103v13.983Z" fill="#24AB70"/></symbol><symbol fill="none" viewBox="0 0 27 23" id="feedback-after" xmlns="http://www.w3.org/2000/svg"><path d="M10.72 13.92c0-2.24-.373-4.32-1.12-6.24-.747-1.92-1.627-3.387-2.64-4.4-1.013-1.067-1.947-1.867-2.8-2.4C3.253.293 2.56 0 2.08 0c-.267 0-.507.133-.72.4-.213.213-.32.4-.32.56 0 .32.24.693.72 1.12.48.373.987.773 1.52 1.2.533.427 1.04 1.147 1.52 2.16.48 1.013.72 2.213.72 3.6 0 1.44-.293 2.667-.88 3.68-.587.96-1.2 1.627-1.84 2a9.636 9.636 0 0 0-1.92 1.36c-.587.48-.88 1.04-.88 1.68 0 .32.72 1.2 2.16 2.64.107.107.4.453.88 1.04.427.533.827.907 1.2 1.12.32.213.693.32 1.12.32.16 0 .427-.08.8-.24.373-.213.827-.56 1.36-1.04.533-.48 1.04-1.04 1.52-1.68.48-.64.88-1.493 1.2-2.56.32-1.067.48-2.213.48-3.44Zm15.68 0c0-2.24-.373-4.32-1.12-6.24-.747-1.92-1.627-3.387-2.64-4.4-1.067-1.067-2.027-1.867-2.88-2.4-.907-.587-1.6-.88-2.08-.88-.267 0-.507.133-.72.4-.213.213-.32.4-.32.56 0 .32.24.693.72 1.12.427.373.933.773 1.52 1.2.587.427 1.12 1.147 1.6 2.16.427 1.013.64 2.213.64 3.6 0 1.44-.293 2.667-.88 3.68-.587.96-1.2 1.627-1.84 2a9.638 9.638 0 0 0-1.92 1.36c-.587.48-.88 1.04-.88 1.68 0 .32.72 1.2 2.16 2.64.107.107.4.453.88 1.04.427.533.827.907 1.2 1.12.32.213.693.32 1.12.32.373 0 .96-.267 1.76-.8.747-.533 1.547-1.52 2.4-2.96.853-1.493 1.28-3.227 1.28-5.2Z" fill="#24AB70"/></symbol><symbol fill="none" viewBox="0 0 27 23" id="feedback-before" xmlns="http://www.w3.org/2000/svg"><path d="M15.68 13.92c0-2.24.373-4.32 1.12-6.24.747-1.92 1.627-3.387 2.64-4.4 1.013-1.067 1.947-1.867 2.8-2.4.907-.587 1.6-.88 2.08-.88.267 0 .507.133.72.4.213.213.32.4.32.56 0 .32-.24.693-.72 1.12-.48.373-.987.773-1.52 1.2-.533.427-1.04 1.147-1.52 2.16-.48 1.013-.72 2.213-.72 3.6 0 1.44.293 2.667.88 3.68.587.96 1.2 1.627 1.84 2a9.638 9.638 0 0 1 1.92 1.36c.587.48.88 1.04.88 1.68 0 .32-.72 1.2-2.16 2.64-.107.107-.4.453-.88 1.04-.427.533-.827.907-1.2 1.12-.32.213-.693.32-1.12.32-.16 0-.427-.08-.8-.24-.373-.213-.827-.56-1.36-1.04-.533-.48-1.04-1.04-1.52-1.68-.48-.64-.88-1.493-1.2-2.56a11.917 11.917 0 0 1-.48-3.44ZM0 13.92c0-2.24.373-4.32 1.12-6.24.747-1.92 1.627-3.387 2.64-4.4C4.827 2.213 5.787 1.413 6.64.88 7.547.293 8.24 0 8.72 0c.267 0 .507.133.72.4.213.213.32.4.32.56 0 .32-.24.693-.72 1.12-.427.373-.933.773-1.52 1.2-.587.427-1.12 1.147-1.6 2.16-.427 1.013-.64 2.213-.64 3.6 0 1.44.293 2.667.88 3.68.587.96 1.2 1.627 1.84 2a9.636 9.636 0 0 1 1.92 1.36c.587.48.88 1.04.88 1.68 0 .32-.72 1.2-2.16 2.64-.107.107-.4.453-.88 1.04-.427.533-.827.907-1.2 1.12-.32.213-.693.32-1.12.32-.373 0-.96-.267-1.76-.8-.747-.533-1.547-1.52-2.4-2.96C.427 17.627 0 15.893 0 13.92Z" fill="#24AB70"/></symbol><symbol fill="none" viewBox="0 0 24 24" id="filters-checkIn-checkOut" xmlns="http://www.w3.org/2000/svg"><path d="M18 4h-1V3a1 1 0 0 0-2 0v1H9V3a1 1 0 0 0-2 0v1H6a3 3 0 0 0-3 3v12a3 3 0 0 0 3 3h12a3 3 0 0 0 3-3V7a3 3 0 0 0-3-3ZM8 17a1 1 0 1 1 0-2 1 1 0 0 1 0 2Zm8 0h-4a1 1 0 0 1 0-2h4a1 1 0 0 1 0 2Zm3-6H5V7a1 1 0 0 1 1-1h1v1a1 1 0 0 0 2 0V6h6v1a1 1 0 0 0 2 0V6h1a1 1 0 0 1 1 1v4Z" fill="#24AB70"/></symbol><symbol fill="none" viewBox="0 0 24 24" id="filters-guests" xmlns="http://www.w3.org/2000/svg"><g clip-path="url(#ra)" fill="#24AB70"><path d="M12 11a4 4 0 1 0 0-8 4 4 0 0 0 0 8ZM18 21a1 1 0 0 0 1-1 7 7 0 1 0-14 0 1 1 0 0 0 1 1h12Z"/></g><defs><clipPath id="ra"><path fill="#fff" d="M0 0h24v24H0z"/></clipPath></defs></symbol><symbol fill="none" viewBox="0 0 24 24" id="filters-location-pin" xmlns="http://www.w3.org/2000/svg"><g clip-path="url(#sa)" fill="#24AB70"><path d="M12 11a1.5 1.5 0 1 0 0-3 1.5 1.5 0 0 0 0 3Z"/><path d="M12 2a8 8 0 0 0-8 7.92c0 5.48 7.05 11.58 7.35 11.84a1 1 0 0 0 1.3 0C13 21.5 20 15.4 20 9.92A8 8 0 0 0 12 2Zm0 11a3.5 3.5 0 1 1 0-7 3.5 3.5 0 0 1 0 7Z"/></g><defs><clipPath id="sa"><path fill="#fff" d="M0 0h24v24H0z"/></clipPath></defs></symbol><symbol fill="none" viewBox="0 0 16 16" id="hotel-rating-star" xmlns="http://www.w3.org/2000/svg"><path d="M11.707 14a.666.666 0 0 1-.307-.073L8 12.147l-3.4 1.78a.666.666 0 0 1-.967-.707L4.3 9.467 1.553 6.8a.667.667 0 0 1-.166-.667.667.667 0 0 1 .54-.453l3.8-.553L7.4 1.707a.667.667 0 0 1 1.2 0l1.693 3.413 3.8.553a.666.666 0 0 1 .54.454.668.668 0 0 1-.166.666L11.72 9.46l.666 3.753a.667.667 0 0 1-.266.667.666.666 0 0 1-.413.12Z" fill="#F95F5F"/></symbol><symbol fill="none" viewBox="0 0 18 18" id="hotel-rating-star-green" xmlns="http://www.w3.org/2000/svg"><path stroke="#F4FDFE" stroke-width="1.125" d="M.563.563h16.875v16.875H.563z"/><path fill-rule="evenodd" clip-rule="evenodd" d="M10.794 7.034 9 1.125 7.206 7.034H1.125l4.92 3.824-1.826 6.017L9 13.157l4.781 3.718-1.826-6.017 4.92-3.825h-6.08Z" fill="#24AB70"/></symbol><symbol fill="none" viewBox="0 0 16 16" id="socials-fb" xmlns="http://www.w3.org/2000/svg"><path d="M16 8a8 8 0 1 0-9.25 7.903v-5.59H4.719V8H6.75V6.238c0-2.005 1.194-3.113 3.022-3.113.875 0 1.79.156 1.79.156V5.25h-1.008c-.994 0-1.304.617-1.304 1.25V8h2.219l-.355 2.313H9.25v5.59A8.002 8.002 0 0 0 16 8Z" fill="#1877F2"/><path d="M11.114 10.312 11.47 8H9.25V6.5c0-.634.31-1.25 1.304-1.25h1.008V3.28s-.915-.156-1.79-.156c-1.828 0-3.022 1.107-3.022 3.112V8H4.719v2.312H6.75v5.59a8.062 8.062 0 0 0 2.5 0v-5.59h1.864Z" fill="#fff"/></symbol><symbol fill="none" viewBox="0 0 16 16" id="socials-google" xmlns="http://www.w3.org/2000/svg"><g clip-path="url(#wa)"><path d="m3.546 9.669-.557 2.079-2.036.043A7.964 7.964 0 0 1 0 8a7.96 7.96 0 0 1 .894-3.68l1.813.333.794 1.801a4.755 4.755 0 0 0 .045 3.215Z" fill="#FBBB00"/><path d="M15.86 6.506a8.006 8.006 0 0 1-.035 3.164 7.999 7.999 0 0 1-2.817 4.569l-2.283-.117-.323-2.017a4.769 4.769 0 0 0 2.052-2.435H8.176V6.506H15.86Z" fill="#518EF8"/><path d="M13.008 14.238A7.966 7.966 0 0 1 8 16 7.999 7.999 0 0 1 .954 11.79L3.546 9.67a4.757 4.757 0 0 0 6.856 2.436l2.606 2.133Z" fill="#28B446"/><path d="m13.106 1.842-2.591 2.121A4.758 4.758 0 0 0 3.5 6.454L.895 4.322A7.998 7.998 0 0 1 8 0c1.941 0 3.72.691 5.106 1.842Z" fill="#F14336"/></g><defs><clipPath id="wa"><path fill="#fff" d="M0 0h16v16H0z"/></clipPath></defs></symbol><symbol fill="none" viewBox="0 0 16 16" id="socials-inst" xmlns="http://www.w3.org/2000/svg"><path d="M8.003 0c-3.34 0-4.317.003-4.507.02-.685.056-1.112.164-1.577.396C1.561.593 1.28.8 1 1.089.493 1.616.185 2.264.074 3.035c-.055.374-.07.45-.073 2.362-.002.637 0 1.475 0 2.6 0 3.338.003 4.314.02 4.504.055.667.16 1.087.38 1.546a3.37 3.37 0 0 0 2.185 1.784c.33.085.694.132 1.162.154.198.009 2.217.015 4.238.015 2.02 0 4.04-.002 4.234-.012.541-.026.856-.068 1.203-.158a3.35 3.35 0 0 0 2.184-1.788c.218-.448.328-.884.378-1.516.01-.138.015-2.336.015-4.531 0-2.196-.005-4.39-.016-4.527-.05-.643-.16-1.075-.384-1.532a3.173 3.173 0 0 0-.685-.938c-.53-.506-1.177-.813-1.948-.925-.374-.054-.448-.07-2.36-.073H8.002Z" fill="url(#xa)"/><path d="M8.003 0c-3.34 0-4.317.003-4.507.02-.685.056-1.112.164-1.577.396C1.561.593 1.28.8 1 1.089.493 1.616.185 2.264.074 3.035c-.055.374-.07.45-.073 2.362-.002.637 0 1.475 0 2.6 0 3.338.003 4.314.02 4.504.055.667.16 1.087.38 1.546a3.37 3.37 0 0 0 2.185 1.784c.33.085.694.132 1.162.154.198.009 2.217.015 4.238.015 2.02 0 4.04-.002 4.234-.012.541-.026.856-.068 1.203-.158a3.35 3.35 0 0 0 2.184-1.788c.218-.448.328-.884.378-1.516.01-.138.015-2.336.015-4.531 0-2.196-.005-4.39-.016-4.527-.05-.643-.16-1.075-.384-1.532a3.173 3.173 0 0 0-.685-.938c-.53-.506-1.177-.813-1.948-.925-.374-.054-.448-.07-2.36-.073H8.002Z" fill="url(#xb)"/><path d="M7.999 2.093c-1.604 0-1.806.007-2.436.035-.629.029-1.058.129-1.433.275-.389.15-.718.352-1.047.681a2.9 2.9 0 0 0-.681 1.046c-.147.376-.246.806-.275 1.434-.028.63-.035.832-.035 2.437 0 1.604.007 1.805.035 2.435.03.63.129 1.059.275 1.434.15.389.353.718.681 1.047.328.329.658.53 1.046.682.376.146.805.245 1.434.274.63.029.831.036 2.435.036s1.805-.007 2.435-.036c.629-.029 1.059-.128 1.434-.274.389-.151.718-.354 1.046-.682a2.9 2.9 0 0 0 .682-1.047c.145-.375.245-.805.274-1.434.029-.63.036-.83.036-2.435s-.007-1.806-.036-2.436c-.03-.63-.129-1.059-.274-1.434a2.9 2.9 0 0 0-.682-1.047 2.886 2.886 0 0 0-1.046-.681c-.377-.146-.806-.246-1.435-.275-.63-.028-.83-.035-2.435-.035h.002Zm-.53 1.064h.53c1.577 0 1.764.006 2.387.034.575.027.888.123 1.096.204.276.107.472.235.679.442.207.206.335.403.442.679.08.208.177.52.203 1.097.029.623.035.81.035 2.386 0 1.577-.006 1.764-.035 2.387-.026.576-.122.889-.203 1.097a1.825 1.825 0 0 1-.442.678 1.827 1.827 0 0 1-.679.442c-.208.082-.52.178-1.096.204-.623.028-.81.034-2.387.034s-1.764-.006-2.387-.034c-.576-.027-.888-.123-1.097-.204a1.83 1.83 0 0 1-.679-.442 1.831 1.831 0 0 1-.442-.679c-.08-.208-.177-.52-.203-1.096-.029-.623-.034-.81-.034-2.388 0-1.578.005-1.764.034-2.387.026-.576.122-.888.203-1.097a1.83 1.83 0 0 1 .442-.68c.207-.206.404-.334.68-.441.207-.082.52-.178 1.096-.204.545-.025.756-.032 1.857-.033v.001Zm3.683.981a.709.709 0 1 0 0 1.418.709.709 0 0 0 0-1.418Zm-3.153.829A3.034 3.034 0 1 0 8 11.034 3.034 3.034 0 0 0 8 4.967Zm0 1.064a1.97 1.97 0 1 1 0 3.939 1.97 1.97 0 0 1 0-3.939Z" fill="#fff"/><defs><radialGradient id="xa" cx="0" cy="0" r="1" gradientUnits="userSpaceOnUse" gradientTransform="matrix(0 -15.8572 14.7484 0 4.25 17.232)"><stop stop-color="#FD5"/><stop offset=".1" stop-color="#FD5"/><stop offset=".5" stop-color="#FF543E"/><stop offset="1" stop-color="#C837AB"/></radialGradient><radialGradient id="xb" cx="0" cy="0" r="1" gradientUnits="userSpaceOnUse" gradientTransform="rotate(78.681 -2.043 -1.059) scale(7.08823 29.218)"><stop stop-color="#3771C8"/><stop offset=".128" stop-color="#3771C8"/><stop offset="1" stop-color="#60F" stop-opacity="0"/></radialGradient></defs></symbol></svg>