<svg width="19" height="19" viewBox="0 0 19 19" fill="currentColor" xmlns="http://www.w3.org/2000/svg">
<g clip-path="url(#clip0_4043_226)">
<path d="M13.9168 16.5408C13.7938 16.5413 13.6726 16.5123 13.5632 16.4563L9.64276 14.4038L5.72235 16.4563C5.59505 16.5232 5.45152 16.5531 5.30808 16.5425C5.16464 16.5319 5.02704 16.4813 4.91093 16.3965C4.79481 16.3116 4.70484 16.1958 4.65125 16.0623C4.59765 15.9289 4.58257 15.783 4.60773 15.6414L5.37643 11.3136L2.20936 8.23878C2.11055 8.14018 2.04045 8.01652 2.00659 7.8811C1.97274 7.74567 1.9764 7.60358 2.01718 7.47007C2.06174 7.33345 2.14369 7.21206 2.25375 7.11966C2.36381 7.02727 2.49756 6.96757 2.63983 6.94735L7.02147 6.30933L8.95092 2.36586C9.01387 2.23589 9.11215 2.12628 9.23451 2.04959C9.35687 1.9729 9.49835 1.93222 9.64276 1.93222C9.78717 1.93222 9.92865 1.9729 10.051 2.04959C10.1734 2.12628 10.2717 2.23589 10.3346 2.36586L12.2871 6.30164L16.6687 6.93967C16.811 6.95989 16.9448 7.01958 17.0548 7.11198C17.1649 7.20437 17.2468 7.32577 17.2914 7.46239C17.3322 7.59589 17.3358 7.73798 17.302 7.87341C17.2681 8.00884 17.198 8.13249 17.0992 8.23109L13.9321 11.3059L14.7009 15.6337C14.7283 15.7779 14.7139 15.9268 14.6594 16.063C14.605 16.1992 14.5126 16.317 14.3934 16.4025C14.2542 16.5 14.0866 16.5487 13.9168 16.5408Z" fill="#E5E5E5"/>
</g>
<defs>
<clipPath id="clip0_4043_226">
<rect width="18.449" height="18.449" fill="white" transform="translate(0.418213 0.39798)"/>
</clipPath>
</defs>
</svg>
